<?xml version="1.0" encoding="UTF-8" standalone="no"?>
<svg
   xmlns:dc="http://purl.org/dc/elements/1.1/"
   xmlns:cc="http://creativecommons.org/ns#"
   xmlns:rdf="http://www.w3.org/1999/02/22-rdf-syntax-ns#"
   xmlns:svg="http://www.w3.org/2000/svg"
   xmlns="http://www.w3.org/2000/svg"
   xmlns:sodipodi="http://sodipodi.sourceforge.net/DTD/sodipodi-0.dtd"
   xmlns:inkscape="http://www.inkscape.org/namespaces/inkscape"
   sodipodi:docname="desenhando.svg"
   inkscape:version="1.0 (4035a4fb49, 2020-05-01)"
   id="svg8"
   version="1.1"
   viewBox="0 0 50 9"
   height="9mm"
   width="50mm">
  <defs
     id="defs2">
    <rect
       id="rect839"
       height="33.408691"
       width="109.31324"
       y="76.439087"
       x="67.619186" />
  </defs>
  <sodipodi:namedview
     inkscape:window-maximized="1"
     inkscape:window-y="-8"
     inkscape:window-x="-8"
     inkscape:window-height="1017"
     inkscape:window-width="2560"
     showgrid="false"
     inkscape:document-rotation="0"
     inkscape:current-layer="layer1"
     inkscape:document-units="mm"
     inkscape:cy="-15.346906"
     inkscape:cx="215.17137"
     inkscape:zoom="1.979899"
     inkscape:pageshadow="2"
     inkscape:pageopacity="0.0"
     borderopacity="1.0"
     bordercolor="#666666"
     pagecolor="#ffffff"
     id="base" />
  <metadata
     id="metadata5">
    <rdf:RDF>
      <cc:Work
         rdf:about="">
        <dc:format>image/svg+xml</dc:format>
        <dc:type
           rdf:resource="http://purl.org/dc/dcmitype/StillImage" />
        <dc:title></dc:title>
      </cc:Work>
    </rdf:RDF>
  </metadata>
  <g
     id="layer1"
     inkscape:groupmode="layer"
     inkscape:label="Layer 1">
    <path
       id="path873"
       d="M 1.3029519,8.1838609 C 0.74706269,7.2697749 0.36846569,5.3835839 0.49521879,4.1596909 0.55113679,3.6197579 1.2004409,1.7746489 1.9381153,0.05944994 5.1729138,-7.4619206 7.4757995,-10.843743 8.7997315,-10.016935 c 0.237163,0.1481124 0.474066,0.4331894 0.52645,0.6335064 0.05238,0.200316 0.39321,0.429656 0.7573895,0.509644 0.485978,0.106738 0.831936,0.421375 1.300317,1.182591 0.558199,0.907189 0.639247,1.243222 0.646756,2.6815145 0.0047,0.904394 0.06612,1.737451 0.136447,1.851237 0.254687,0.412094 1.633545,0.200984 2.71265,-0.415318 1.433207,-0.818538 5.077753,-4.1952325 5.512891,-5.1077265 0.188281,-0.394828 0.505654,-0.769707 0.705273,-0.833063 0.604217,-0.191771 1.530635,0.295082 2.48592,1.306405 0.864376,0.915082 1.818982,2.9373985 1.336859,2.8321185 -0.12306,-0.02687 -0.25549,0.289879 -0.294291,0.703893 -0.08574,0.914915 -0.408,3.564982 -0.727144,5.979656 -0.218597,1.653938 -0.78684,3.586113 -1.593747,5.419158 -0.355512,0.807613 -1.776826,1.6672 -2.376315,1.437155 -1.140392,-0.437609 -1.407642,-3.53663 -0.59372,-6.884704 0.253891,-1.04437296 0.461618,-1.98800096 0.461618,-2.09695096 0,-0.24522404 -0.582585,-0.26393104 -0.681062,-0.02187 -0.128467,0.315784 -2.758404,1.99630896 -4.124699,2.63567596 -1.855204,0.868154 -3.462156,1.166173 -4.614704,0.855824 -1.0741615,-0.289242 -2.2485325,-1.256811 -2.6231545,-2.16122796 -0.147217,-0.355413 -0.3394907,-0.646206 -0.4272757,-0.646206 -0.238207,0 -1.29371,2.45321096 -1.29371,3.00685496 0,0.263856 -0.241956,0.767287 -0.53768,1.118735 -0.295724,0.351448 -0.5376795,0.834066 -0.5376795,1.072484 0,0.238418 -0.1935648,0.679565 -0.4301439,0.980326 -0.2365792,0.300762 -0.430144,0.682817 -0.430144,0.849011 0,0.166195 -0.1955318,0.685446 -0.434515,1.153892 -0.3810163,0.746853 -0.527047,0.85172 -1.186057,0.85172 -0.6161067,0 -0.8275485,-0.124983 -1.1733085,-0.693539 z M 27.81034,8.7408719 c -0.773866,-0.173337 -1.701394,-1.25656 -1.850951,-2.161652 -0.283323,-1.71463 -0.05811,-3.444478 0.512809,-3.938906 0.06829,-0.05914 0.444563,-0.843661 0.836151,-1.74336796 0.686167,-1.576524 0.698867,-1.655844 0.350296,-2.18782904 -0.198924,-0.303598 -0.416463,-1.08279 -0.483422,-1.731537 -0.117085,-1.13446 -0.09806,-1.191611 0.497733,-1.495387 1.362814,-0.694853 8.06108,-2.0685255 9.76003,-2.0015755 0.764512,0.03013 1.935648,0.9654935 1.935648,1.5459685 0,0.72652 -1.117828,1.526738 -2.524945,1.80753 -1.602972,0.319875 -2.905422,0.655031 -3.166569,0.814845 -0.11395,0.06973 -0.539416,0.160872 -0.94548,0.202529 -1.00824,0.103433 -1.535741,0.421187 -1.535741,0.925095 0,0.38915804 0.155086,0.42257704 1.961022,0.42257704 1.872232,0 1.994298,0.02921 2.695884,0.645216 0.404174,0.354869 0.835006,0.645216 0.957408,0.645216 0.1224,0 0.191618,0.215238 0.153819,0.478307 -0.04915,0.34207496 -0.466897,0.68435096 -1.466694,1.20172096 -1.325221,0.685769 -1.495834,0.719636 -3.278681,0.65082 l -1.880714,-0.07259 -0.64952,1.218886 -0.649517,1.218886 0.596233,0.130955 c 0.327929,0.07203 1.660098,-0.01577 2.960375,-0.195101 1.30028,-0.17933 2.751274,-0.378333 3.224432,-0.442227 0.707916,-0.0956 0.963534,-0.02293 1.443209,0.410299 1.433764,1.294919 0.559533,2.608783 -2.145191,3.223959 -1.497894,0.340689 -6.411637,0.628055 -7.307624,0.427365 z m 21.103863,-0.24463 c -0.641988,-0.523987 -0.960275,-1.603554 -0.719889,-2.44173 0.182843,-0.637536 2.237815,-5.08948996 3.710364,-8.038246 0.832754,-1.667581 1.172589,-2.043183 1.84861,-2.043183 0.398214,0 0.890073,-0.359361 1.754144,-1.281613 l 1.200762,-1.2816125 1.038795,0.312631 c 1.393402,0.419353 1.579801,0.6109945 1.73545,1.7842685 0.175701,1.32442 0.727868,4.04801104 1.001859,4.94172704 0.167599,0.54668 0.325514,0.69992496 0.68123,0.66109096 0.566392,-0.06183 2.076094,0.81996 2.076094,1.212616 0,0.156532 -0.389491,0.617993 -0.865534,1.025469 -0.863974,0.739531 -0.865279,0.743016 -0.72507,1.935997 0.118355,1.007009 0.06669,1.314499 -0.328202,1.953453 -0.529218,0.856292 -1.661222,1.640291 -2.368391,1.640291 -0.675393,0 -1.304674,-0.385972 -1.304674,-0.800226 0,-0.195221 -0.204805,-0.57295 -0.455118,-0.839399 l -0.455121,-0.484452 0.777729,-0.324955 c 0.617271,-0.257912 0.777726,-0.443004 0.777726,-0.897139 0,-0.540751 -0.04431,-0.565096 -0.80652,-0.443146 -0.443586,0.07097 -1.437348,0.189741 -2.208357,0.263931 -1.506861,0.144997 -1.570131,0.104304 -2.030757,-1.306079 -0.129955,-0.397901 -0.155331,-0.391643 -0.436054,0.107536 -0.723326,1.286213 -1.157313,2.30817 -1.296929,3.054012 -0.110117,0.588262 -0.338119,0.919434 -0.851408,1.236664 -0.850882,0.525874 -1.159029,0.535043 -1.750739,0.05209 z M 57.1632,1.9081229 c 0.166803,-0.166803 -0.610996,-3.139105 -0.821446,-3.139105 -0.22044,0 -2.348227,2.982062 -2.348227,3.291003 0,0.21151 2.947517,0.07026 3.169673,-0.151898 z m 36.201302,6.293417 c -0.437566,-0.71952 -0.788681,-2.594954 -0.556236,-2.971059 0.07668,-0.124075 0.385542,-1.072164 0.686355,-2.106863 0.465637,-1.601645 0.528761,-2.15299796 0.424681,-3.70938396 -0.06724,-1.00546104 -0.18505,-2.14265404 -0.261803,-2.52709504 -0.114164,-0.571825 -0.07224,-0.698984 0.230478,-0.698984 0.264497,0 0.328501,-0.107343 0.224421,-0.376376 -0.306398,-0.791993 -0.353809,-1.472848 -0.141378,-2.0302455 l 0.220479,-0.578508 2.429804,0.964621 c 2.928616,1.1626505 2.901936,1.1483165 4.829637,2.5944995 2.04198,1.53192 2.93148,2.90317804 3.04558,4.695079 l 0.0843,1.324578 -1.20749,1.304238 c -0.83969,0.906958 -1.71464,1.56641 -2.87242,2.164928 -2.009141,1.038635 -5.854367,2.626432 -6.36053,2.626432 -0.200697,0 -0.549858,-0.304138 -0.775918,-0.675861 z m 5.686597,-4.956552 c 1.768641,-0.89486 2.566451,-1.487946 2.943921,-2.188483 0.17745,-0.32933796 0.0491,-0.57116296 -0.71873,-1.35454396 -0.51412,-0.524497 -1.2251,-1.10180704 -1.579971,-1.28291104 -0.80485,-0.410746 -3.403916,-1.371997 -3.486466,-1.289448 -0.0336,0.03359 0.0469,0.633967 0.1788,1.334161 0.14301,0.75898404 0.18794,2.21202404 0.11125,3.598236 l -0.12863,2.325157 0.47963,-0.135814 c 0.26379,-0.0747 1.253876,-0.527557 2.200196,-1.006354 z m 6.642101,5.251254 c -0.64199,-0.523987 -0.96028,-1.603554 -0.71989,-2.44173 0.18284,-0.637536 2.23781,-5.08948996 3.71036,-8.038246 0.83276,-1.667581 1.17259,-2.043183 1.84861,-2.043183 0.39822,0 0.89008,-0.359361 1.75415,-1.281613 l 1.20076,-1.2816125 1.03879,0.312631 c 1.39341,0.419353 1.57981,0.6109945 1.73545,1.7842685 0.17571,1.32442 0.72787,4.04801104 1.00186,4.94172704 0.1676,0.54668 0.32552,0.69992496 0.68123,0.66109096 0.5664,-0.06183 2.0761,0.81996 2.0761,1.212616 0,0.156532 -0.38949,0.617993 -0.86554,1.025469 -0.86397,0.739531 -0.86528,0.743016 -0.72507,1.935997 0.11836,1.007009 0.0667,1.314499 -0.3282,1.953453 -0.52922,0.856292 -1.66122,1.640291 -2.36839,1.640291 -0.67539,0 -1.30467,-0.385972 -1.30467,-0.800226 0,-0.195221 -0.20481,-0.57295 -0.45512,-0.839399 l -0.45512,-0.484452 0.77773,-0.324955 c 0.61727,-0.257912 0.77772,-0.443004 0.77772,-0.897139 0,-0.540751 -0.0443,-0.565096 -0.80652,-0.443146 -0.44358,0.07097 -1.43734,0.189741 -2.20835,0.263931 -1.50687,0.144997 -1.57014,0.104304 -2.03076,-1.306079 -0.12996,-0.397901 -0.15533,-0.391643 -0.43606,0.107536 -0.72332,1.286213 -1.15731,2.30817 -1.29692,3.054012 -0.11012,0.588262 -0.33812,0.919434 -0.85141,1.236664 -0.85088,0.525874 -1.15903,0.535043 -1.75074,0.05209 z m 8.249,-6.588119 c 0.1668,-0.166803 -0.611,-3.139105 -0.82145,-3.139105 -0.22044,0 -2.34823,2.982062 -2.34823,3.291003 0,0.21151 2.94752,0.07026 3.16968,-0.151898 z m -46.883823,6.633802 c -0.08914,-0.09235 -0.811583,-0.224014 -1.60542,-0.292591 -1.352002,-0.116795 -1.475557,-0.172322 -1.952382,-0.877437 -0.546414,-0.808024 -0.54524,-2.051473 0.0023,-2.398864 0.436332,-0.276851 1.551667,-0.211343 2.394007,0.140608 1.024612,0.428111 2.228795,0.407413 3.14763,-0.0541 1.15661,-0.580945 2.279109,-3.217592 2.990141,-7.023563 l 0.195402,-1.045939 -1.644496,0.119687 c -0.904473,0.06583 -2.145268,0.284868 -2.757324,0.486754 -1.790356,0.590548 -2.669531,0.108494 -2.960767,-1.623395 -0.107009,-0.636349 -0.04276,-0.812655 0.415508,-1.140131 0.974881,-0.6966475 3.944141,-1.0566445 8.978147,-1.0885225 l 4.674856,-0.0296 0.549352,0.5914485 c 0.302144,0.325296 0.688125,0.591448 0.857735,0.591448 0.16961,0 0.45246,0.278619 0.628556,0.619153 0.176099,0.340534 0.444735,0.666961 0.596971,0.725394 0.152239,0.05843 0.461672,0.650229 0.687631,1.315104 0.346216,1.018721 0.371588,1.339865 0.161304,2.04172604 -0.265515,0.886212 -0.329426,3.04378196 -0.113974,3.84773396 0.16193,0.604239 0.585048,0.610605 2.131327,0.03207 1.537778,-0.575357 3.464844,-2.424581 4.235765,-4.06466796 0.305811,-0.65059304 0.673442,-1.81198104 0.816959,-2.58086304 0.143516,-0.768883 0.341763,-1.591533 0.44055,-1.828112 0.09879,-0.236579 0.207832,-0.6721 0.242325,-0.9678245 0.08408,-0.720834 0.808858,-0.810745 1.372373,-0.170248 0.238491,0.271071 0.645407,1.1745095 0.904257,2.0076415 0.442452,1.424078 0.452466,1.601624 0.167218,2.96496 -0.308589,1.47490504 -2.002423,4.805134 -2.405737,4.729892 -0.113375,-0.02115 -0.589742,0.495477 -1.05859,1.148062 -1.067762,1.486204 -2.023058,2.254263 -3.89633,3.132647 -1.231375,0.577398 -1.682149,0.68033 -2.751498,0.628293 -0.8583,-0.04177 -1.478768,-0.204578 -1.886748,-0.495084 -0.679899,-0.484132 -1.548716,-2.012202 -1.337965,-2.353205 0.07521,-0.121687 -0.01983,-0.394255 -0.211192,-0.605708 -0.536044,-0.592321 -0.662007,-3.385628 -0.262388,-5.81859296 0.258914,-1.57631704 0.275843,-2.07351004 0.07494,-2.20119404 -0.448309,-0.284933 -3.168492,-0.203335 -3.244049,0.09731 -0.03716,0.147861 -0.382701,1.575402 -0.767869,3.17231104 -1.266495,5.25087896 -2.081903,6.80770596 -4.116759,7.85997096 -0.725062,0.374943 -3.434452,0.673961 -3.691728,0.407432 z"
       style="fill:#000000;stroke-width:0.215072" />
  </g>
</svg>
